<?xml version="1.0" encoding="UTF-8" standalone="no"?>
<!DOCTYPE svg PUBLIC "-//W3C//DTD SVG 20010904//EN" "http://www.w3.org/TR/2001/REC-SVG-20010904/DTD/svg10.dtd">
<svg version="1.0" xmlns="http://www.w3.org/2000/svg" width="128.000000pt" height="128.000000pt" viewBox="0 0 128.000000 128.000000" preserveAspectRatio="xMidYMid meet">
<metadata>
Created by potrace 1.12, written by Peter Selinger 2001-2015
</metadata>
<g transform="translate(0.000000,128.000000) scale(0.100000,-0.100000)" fill="#FFF" stroke="none">
<path d="M515 1266 c-97 -23 -168 -53 -242 -105 -115 -81 -195 -189 -240 -325 -22 -69 -27 -98 -27 -196 0 -98 5 -127 27 -196 47 -141 131 -252 254 -334 112 -75 210 -104 353 -104 98 0 127 4 197 28 195 64 345 215 410 410 22 69 27 98 27 196 0 98 -5 127 -27 196 -47 141 -131 252 -254 334 -135 90 -331 130 -478 96z m445 -380 c0 -6 -300 -256 -314 -262 -11 -4 -222 164 -311 247 -19 19 -12 19 303 19 177 0 322 -2 322 -4z m-552 -140 l93 -78 -90 -96 c-49 -54 -98 -106 -110 -116 l-21 -19 0 208 c0 197 1 207 18 193 9 -8 59 -49 110 -92z m592 -102 c0 -113 -4 -203 -9 -200 -4 3 -54 55 -110 115 l-101 109 107 91 c60 50 109 91 111 91 1 0 2 -93 2 -206z m-393 -68 l32 -29 54 47 55 47 110 -118 111 -118 -165 -3 c-90 -1 -238 -1 -329 0 l-165 3 111 118 c125 132 106 127 186 53z"/>
</g>
</svg>
