<?xml version="1.0" encoding="utf-8"?>
<!-- Svg Vector Icons : http://www.onlinewebfonts.com/icon -->
<!DOCTYPE svg PUBLIC "-//W3C//DTD SVG 1.1//EN" "http://www.w3.org/Graphics/SVG/1.1/DTD/svg11.dtd">
<svg version="1.1" xmlns="http://www.w3.org/2000/svg" xmlns:xlink="http://www.w3.org/1999/xlink" x="0px" y="0px" viewBox="0 0 1000 1000" enable-background="new 0 0 1000 1000" xml:space="preserve">
<metadata> Svg Vector Icons : http://www.onlinewebfonts.com/icon </metadata>
<g><path fill="#FFF" d="M500,10c136.1,0,251.8,47.6,347.1,142.9C942.4,248.2,990,363.9,990,500c0,134.7-47.6,250.1-142.9,346.1C751.8,942,636.1,990,500,990c-134.8,0-250.1-48-346.1-143.9C58,750.1,10,634.8,10,500c0-136.1,48-251.8,143.9-347.1C249.9,57.6,365.3,10,500,10L500,10 M379.5,702.1V383.6h-98v318.5H379.5L379.5,702.1 M330.5,342.8c35.4,0,53.1-16.3,53.1-49c0-32.7-17.7-49-53.1-49c-15,0-27.6,4.8-37.8,14.3c-10.2,9.5-15.3,21.1-15.3,34.7C277.5,326.5,295.2,342.8,330.5,342.8L330.5,342.8 M743,702.1V514.3c0-44.9-10.5-79.3-31.6-103.1c-21.1-23.8-48.7-35.7-82.7-35.7c-44.9,0-77.6,17-98,51h-2l-6.1-42.9h-85.8c1.4,19.1,2,53.1,2,102.1v216.4h100V518.4c0-12.3,1.4-20.4,4.1-24.5c8.2-25.9,25.2-38.8,51-38.8c32.7,0,49,23.1,49,69.4v177.6H743L743,702.1"/></g>
</svg>
