<?xml version="1.0" encoding="UTF-8"?>
<!-- Generator: Adobe Illustrator 14.0.0, SVG Export Plug-In . SVG Version: 6.00 Build 43363)  -->
<!DOCTYPE svg PUBLIC "-//W3C//DTD SVG 1.1//EN" "http://www.w3.org/Graphics/SVG/1.1/DTD/svg11.dtd">
<svg version="1.1" id="Layer_1" xmlns="http://www.w3.org/2000/svg" xmlns:xlink="http://www.w3.org/1999/xlink" x="0px" y="0px" width="728.5px" height="724.857px" viewBox="0 0 728.5 724.857" enable-background="new 0 0 728.5 724.857" xml:space="preserve">
<path fill="#FFF" d="M364.164,0C164,0,1.722,162.305,1.722,362.442c0,200.167,162.278,362.415,362.442,362.415  c200.168,0,362.415-162.248,362.415-362.415C726.579,162.305,564.332,0,364.164,0z M546.754,289.368  c0.172,3.924,0.256,7.862,0.256,11.814c0,120.709-91.876,259.888-259.879,259.888c-51.58,0-99.594-15.121-140.021-41.035  c7.152,0.833,14.417,1.266,21.785,1.266c42.803,0,82.187-14.606,113.442-39.098c-39.965-0.749-73.692-27.152-85.314-63.43  c5.569,1.078,11.283,1.638,17.184,1.638c8.336,0,16.4-1.105,24.068-3.203c-41.799-8.396-73.283-45.321-73.283-89.548  c0-0.402,0-0.776,0.012-1.165c12.312,6.842,26.399,10.953,41.375,11.442c-24.513-16.415-40.642-44.343-40.642-76.038  c0-16.745,4.507-32.441,12.369-45.923c45.046,55.267,112.357,91.616,188.272,95.426c-1.56-6.685-2.366-13.655-2.366-20.814  c0-50.435,40.901-91.328,91.339-91.328c26.271,0,50.004,11.096,66.663,28.832c20.826-4.081,40.361-11.699,58.011-22.163  c-6.828,21.345-21.313,39.239-40.172,50.538c18.483-2.214,36.091-7.131,52.463-14.388  C580.098,260.39,564.592,276.489,546.754,289.368z"/>
</svg>
